<svg width="30" height="30" viewBox="0 0 30 30" fill="none" xmlns="http://www.w3.org/2000/svg">
<g clip-path="url(#clip0_429_1262)">
<path d="M1.25 1.25L28.75 28.75M20.9 13.825C21.9239 14.3247 22.8813 14.9504 23.75 15.6875M6.25 15.6875C8.1026 14.1385 10.3323 13.1078 12.7125 12.7M13.3875 6.3125C16.0655 6.09671 18.7596 6.42271 21.3088 7.27103C23.8581 8.11934 26.2103 9.4726 28.225 11.25M1.775 11.25C3.50896 9.71731 5.49712 8.49903 7.65 7.65M10.6625 20.1375C11.9315 19.2359 13.4496 18.7516 15.0063 18.7516C16.5629 18.7516 18.081 19.2359 19.35 20.1375M15 25H15.0125" stroke="white" stroke-width="4" stroke-linecap="round" stroke-linejoin="round"/>
</g>
<defs>
<clipPath id="clip0_429_1262">
<rect width="30" height="30" fill="white"/>
</clipPath>
</defs>
</svg>
